<svg width="1220" height="880" viewBox="0 0 1220 880" fill="none" xmlns="http://www.w3.org/2000/svg">
<ellipse opacity="0.7" cx="612.852" cy="539.433" rx="130.734" ry="130.8" fill="#C4C4C4"/>
<path d="M730.726 530.87C730.726 602.833 672.418 661.17 600.492 661.17C528.566 661.17 470.259 602.833 470.259 530.87C470.259 458.907 528.566 400.57 600.492 400.57C672.418 400.57 730.726 458.907 730.726 530.87Z" stroke="black"/>
<rect opacity="0.6" x="185" y="169" width="46" height="46" fill="#C4C4C4"/>
<rect x="177.5" y="160.5" width="45" height="45" stroke="black"/>
<rect opacity="0.6" x="788" y="290" width="77" height="77" fill="#FE6584"/>
<rect x="776.5" y="276.5" width="76" height="77" stroke="black"/>
<rect opacity="0.6" x="265" y="549" width="124" height="124" fill="#FE6584"/>
<rect x="246.5" y="527.5" width="123" height="124" stroke="black"/>
<ellipse opacity="0.7" cx="352.336" cy="92.3342" rx="48.0149" ry="48.0393" fill="#FE6584"/>
<path d="M393.195 88.5295C393.195 114.785 371.922 136.069 345.681 136.069C319.439 136.069 298.166 114.785 298.166 88.5295C298.166 62.2741 319.439 40.9902 345.681 40.9902C371.922 40.9902 393.195 62.2741 393.195 88.5295Z" stroke="black"/>
<ellipse opacity="0.7" cx="664.67" cy="152.741" rx="57.9981" ry="58.0277" fill="#C4C4C4"/>
<path d="M715.513 147.032C715.513 178.804 689.77 204.559 658.015 204.559C626.26 204.559 600.517 178.804 600.517 147.032C600.517 115.26 626.26 89.5039 658.015 89.5039C689.77 89.5039 715.513 115.26 715.513 147.032Z" stroke="black"/>
<ellipse opacity="0.7" cx="603.344" cy="826.717" rx="43.2609" ry="43.283" fill="#C4C4C4"/>
<path d="M638.499 821.01C638.499 844.638 619.354 863.792 595.738 863.792C572.122 863.792 552.977 844.638 552.977 821.01C552.977 797.381 572.122 778.227 595.738 778.227C619.354 778.227 638.499 797.381 638.499 821.01Z" stroke="black"/>
<circle opacity="0.7" cx="987.5" cy="130.5" r="74.5" fill="#C4C4C4"/>
<path d="M1055.5 119.5C1055.5 159.81 1022.38 192.5 981.5 192.5C940.625 192.5 907.5 159.81 907.5 119.5C907.5 79.1896 940.625 46.5 981.5 46.5C1022.38 46.5 1055.5 79.1896 1055.5 119.5Z" stroke="black"/>
<ellipse opacity="0.7" cx="177.866" cy="382.949" rx="68.4568" ry="68.4917" fill="#FE6584"/>
<path d="M234.414 378.191C234.414 415.742 203.988 446.183 166.457 446.183C128.926 446.183 98.5 415.742 98.5 378.191C98.5 340.64 128.926 310.199 166.457 310.199C203.988 310.199 234.414 340.64 234.414 378.191Z" stroke="black"/>
<ellipse opacity="0.7" cx="906.646" cy="653.585" rx="130.734" ry="130.8" fill="#C4C4C4"/>
<path d="M1026.42 645.025C1026.42 716.988 968.113 775.325 896.188 775.325C824.262 775.325 765.954 716.988 765.954 645.025C765.954 573.062 824.262 514.725 896.188 514.725C968.113 514.725 1026.42 573.062 1026.42 645.025Z" stroke="black"/>
<path d="M653.005 518.674C655.043 505.079 644.671 497.772 630.489 492.91L635.091 474.494L623.858 471.699L619.376 489.614C616.422 488.88 613.39 488.188 610.369 487.499L614.873 469.449L603.663 466.66L599.058 485.07C596.614 484.515 594.212 483.964 591.886 483.386V483.329L576.404 479.458L573.402 491.442C573.402 491.442 581.736 493.347 581.562 493.467C586.11 494.6 586.932 497.604 586.797 499.986L581.556 520.957C581.953 521.056 582.343 521.181 582.723 521.332C582.348 521.239 581.949 521.137 581.523 521.032L574.177 550.421C573.621 551.8 572.21 553.87 569.028 553.085C569.139 553.247 560.862 551.051 560.862 551.051L555.33 563.897L569.932 567.537C572.652 568.217 575.317 568.93 577.941 569.598L573.294 588.208L584.516 591.003L589.121 572.576C592.186 573.406 595.161 574.173 598.073 574.895L593.486 593.238L604.72 596.033L609.367 577.45C628.523 581.066 642.927 579.607 648.994 562.318C653.878 548.396 648.751 540.367 638.673 535.131C645.992 533.444 651.531 528.627 653.005 518.674ZM627.34 554.589C623.87 568.51 600.382 560.985 592.768 559.082L598.938 534.406C606.551 536.317 630.982 540.071 627.34 554.589ZM630.814 518.471C627.646 531.134 608.097 524.699 601.757 523.123L607.349 500.729C613.693 502.32 634.113 505.265 630.814 518.471Z" fill="white"/>
<path d="M648.707 512.893L648.707 512.894C647.982 517.79 646.264 521.382 643.862 523.954C641.46 526.526 638.341 528.11 634.758 528.936L633.435 529.241L634.639 529.867C639.622 532.456 643.315 535.702 645.183 539.961C647.049 544.214 647.133 549.564 644.719 556.445C641.733 564.956 636.726 569.516 630.139 571.538C623.507 573.575 615.218 573.057 605.656 571.252L605.193 571.164L605.079 571.622L600.553 589.721L590.289 587.167L594.755 569.309L594.877 568.823L594.39 568.702C591.481 567.981 588.51 567.215 585.448 566.386L584.956 566.253L584.833 566.748L580.349 584.69L570.097 582.137L574.623 564.012L574.744 563.529L574.261 563.406C573.166 563.127 572.059 562.839 570.941 562.549C569.394 562.147 567.828 561.739 566.25 561.345L566.249 561.345L552.219 557.847L557.348 545.937C557.57 545.996 557.87 546.075 558.224 546.168C558.998 546.371 560.03 546.641 561.059 546.906C562.087 547.17 563.115 547.43 563.879 547.614C564.26 547.706 564.581 547.78 564.805 547.826C564.914 547.849 565.012 547.868 565.086 547.877C565.11 547.88 565.153 547.886 565.201 547.886C566.877 548.275 568.147 547.934 569.077 547.263C570.003 546.594 570.541 545.636 570.837 544.901L570.85 544.869L570.859 544.836L578.084 515.931C578.152 515.948 578.22 515.965 578.287 515.982C578.461 516.025 578.631 516.068 578.8 516.11L579.104 515.16C578.858 515.062 578.609 514.975 578.356 514.898L583.479 494.4L583.491 494.355L583.493 494.307C583.565 493.053 583.387 491.591 582.554 490.283C581.728 488.984 580.296 487.899 577.985 487.302C577.942 487.278 577.902 487.262 577.881 487.253C577.808 487.224 577.71 487.192 577.602 487.16C577.381 487.093 577.062 487.007 576.682 486.909C575.921 486.712 574.891 486.462 573.86 486.216C572.828 485.97 571.79 485.728 571.011 485.547C570.695 485.474 570.422 485.411 570.208 485.362L572.965 474.358L587.583 478.012V478.07L587.962 478.164C590.294 478.744 592.7 479.296 595.144 479.85L595.621 479.958L595.74 479.484L600.224 461.559L610.463 464.107L606.081 481.671L605.958 482.166L606.455 482.28C609.476 482.969 612.503 483.66 615.452 484.393L615.936 484.513L616.058 484.029L620.419 466.598L630.682 469.152L626.201 487.082L626.09 487.527L626.524 487.676C633.59 490.099 639.642 493.11 643.672 497.163C647.677 501.19 649.702 506.259 648.707 512.893ZM617.941 556.183C620.879 554.905 623.113 552.648 624.022 549.003C624.972 545.216 624.087 542.102 622.1 539.564C620.131 537.049 617.096 535.118 613.763 533.607C608.453 531.202 602.233 529.803 598.026 528.856C596.956 528.616 596.017 528.405 595.256 528.214L594.771 528.092L594.649 528.577L588.48 553.254L588.359 553.739L588.844 553.861C589.45 554.012 590.161 554.2 590.958 554.412C595.122 555.515 601.635 557.241 607.779 557.562C611.441 557.753 615.03 557.45 617.941 556.183ZM627.496 512.885L627.496 512.885C628.356 509.442 627.67 506.631 626.034 504.352C624.414 502.096 621.886 500.395 619.108 499.085C614.688 497.002 609.484 495.847 605.977 495.068C605.083 494.87 604.3 494.696 603.668 494.537L603.182 494.415L603.061 494.901L597.468 517.295L597.347 517.781L597.833 517.901C598.352 518.03 598.965 518.194 599.655 518.377C603.123 519.301 608.529 520.741 613.654 520.929C616.729 521.042 619.762 520.708 622.244 519.504C624.75 518.289 626.667 516.199 627.496 512.885Z" stroke="black"/>
<path d="M857.34 651.883L898.696 567.834L940.051 651.883L898.696 675.822L857.34 651.883Z" fill="white"/>
<path d="M940.467 661.992L898.696 726.36L857.756 661.992L898.695 686.463L940.467 661.992Z" fill="white"/>
<path d="M895.641 668.246L854.94 644.686L895.641 561.968L936.342 644.686L895.641 668.246Z" stroke="black"/>
<path d="M935.844 656.492L895.645 718.437L856.255 656.505L895.384 679.894L895.638 680.046L895.893 679.896L935.844 656.492Z" stroke="black"/>
<ellipse opacity="0.7" cx="440.759" cy="288.296" rx="130.734" ry="130.8" fill="#C4C4C4"/>
<path d="M560.534 279.736C560.534 351.699 502.227 410.036 430.301 410.036C358.375 410.036 300.067 351.699 300.067 279.736C300.067 207.773 358.375 149.436 430.301 149.436C502.227 149.436 560.534 207.773 560.534 279.736Z" stroke="black"/>
<path d="M479.526 232.646H497.332L460.286 268.558C446.876 281.558 425.135 281.558 411.725 268.558L374.68 232.646H392.486L420.628 259.928C429.121 268.161 442.89 268.161 451.383 259.928L479.526 232.646Z" fill="white"/>
<path d="M392.419 333.482H374.68L411.815 296.774C425.175 283.568 446.836 283.568 460.196 296.774L497.332 333.482H479.592L451.326 305.541C442.865 297.177 429.146 297.177 420.685 305.541L392.419 333.482Z" fill="white"/>
<path d="M443.535 257.996L471.313 230.293H487.565L451.663 266.098C438.552 279.174 417.295 279.174 404.184 266.098L368.283 230.293H384.534L412.312 257.996C420.934 266.596 434.913 266.596 443.535 257.996L443.182 257.642L443.535 257.996Z" stroke="black"/>
<path d="M411.78 302.899L383.66 330.128H367.358L403.606 295.028C416.772 282.28 438.125 282.28 451.291 295.028L487.539 330.128H471.237L443.117 302.899C434.461 294.518 420.435 294.518 411.78 302.899Z" stroke="black"/>
<rect opacity="0.6" x="293" y="764" width="59" height="59" fill="#C4C4C4"/>
<rect x="281.5" y="776.5" width="58" height="58" stroke="black"/>
<rect opacity="0.6" x="973" y="333" width="76" height="76" fill="#C4C4C4"/>
<rect x="957.5" y="349.5" width="75" height="75" stroke="black"/>
</svg>
