<svg width="1220" height="880" viewBox="0 0 1220 880" fill="none" xmlns="http://www.w3.org/2000/svg">
<circle opacity="0.65" cx="672" cy="415" r="188" fill="#C4C4C4"/>
<circle cx="657" cy="403" r="187.5" stroke="black"/>
<path d="M654.172 317.007C641.733 317.007 601.594 317.007 601.594 317.007V398.022H580V417.865H601.595V498.88H662.859C662.859 498.88 749 506.058 749 409.46C749 314.438 666.613 317.007 654.172 317.007ZM661.449 465.26C654.937 465.26 636.099 465.26 636.099 465.26V417.866H674.124V398.023H636.099V350.627C636.099 350.627 651.237 350.627 660.275 350.627C669.312 350.627 714.788 354.244 714.858 410.118C714.929 465.99 667.961 465.26 661.449 465.26Z" fill="white"/>
<path d="M594.594 392.967H595.094V392.467V311.507H595.105H595.135H595.166H595.198H595.23H595.263H595.297H595.332H595.367H595.403H595.441H595.478H595.517H595.556H595.597H595.638H595.679H595.722H595.765H595.809H595.854H595.9H595.946H595.993H596.041H596.089H596.139H596.189H596.24H596.291H596.343H596.396H596.45H596.504H596.559H596.615H596.672H596.729H596.787H596.846H596.905H596.965H597.026H597.087H597.149H597.212H597.275H597.339H597.404H597.47H597.536H597.603H597.67H597.738H597.807H597.876H597.947H598.017H598.089H598.161H598.233H598.307H598.38H598.455H598.53H598.606H598.682H598.759H598.837H598.915H598.994H599.073H599.154H599.234H599.315H599.397H599.48H599.563H599.646H599.73H599.815H599.9H599.986H600.073H600.16H600.247H600.336H600.424H600.513H600.603H600.694H600.784H600.876H600.968H601.06H601.153H601.247H601.341H601.435H601.531H601.626H601.722H601.819H601.916H602.014H602.112H602.211H602.31H602.409H602.51H602.61H602.711H602.813H602.915H603.017H603.12H603.224H603.328H603.432H603.537H603.642H603.748H603.854H603.961H604.068H604.175H604.283H604.392H604.501H604.61H604.719H604.83H604.94H605.051H605.162H605.274H605.386H605.499H605.612H605.725H605.839H605.953H606.068H606.182H606.298H606.413H606.53H606.646H606.763H606.88H606.997H607.115H607.234H607.352H607.471H607.59H607.71H607.83H607.95H608.071H608.192H608.313H608.435H608.557H608.679H608.802H608.925H609.048H609.172H609.295H609.42H609.544H609.669H609.794H609.919H610.045H610.171H610.297H610.423H610.55H610.677H610.805H610.932H611.06H611.188H611.316H611.445H611.574H611.703H611.832H611.962H612.092H612.222H612.352H612.483H612.613H612.744H612.875H613.007H613.139H613.27H613.402H613.535H613.667H613.8H613.933H614.066H614.199H614.332H614.466H614.6H614.734H614.868H615.002H615.137H615.271H615.406H615.541H615.676H615.812H615.947H616.083H616.218H616.354H616.49H616.627H616.763H616.899H617.036H617.172H617.309H617.446H617.583H617.72H617.858H617.995H618.132H618.27H618.408H618.545H618.683H618.821H618.959H619.097H619.235H619.374H619.512H619.65H619.789H619.927H620.066H620.205H620.343H620.482H620.621H620.76H620.899H621.038H621.176H621.315H621.454H621.594H621.733H621.872H622.011H622.15H622.289H622.428H622.567H622.707H622.846H622.985H623.124H623.263H623.402H623.541H623.68H623.819H623.959H624.098H624.237H624.375H624.514H624.653H624.792H624.931H625.07H625.208H625.347H625.486H625.624H625.763H625.901H626.039H626.177H626.316H626.454H626.592H626.73H626.867H627.005H627.143H627.28H627.418H627.555H627.692H627.83H627.967H628.103H628.24H628.377H628.513H628.65H628.786H628.922H629.058H629.194H629.33H629.465H629.601H629.736H629.871H630.006H630.141H630.276H630.41H630.545H630.679H630.813H630.946H631.08H631.213H631.347H631.48H631.612H631.745H631.878H632.01H632.142H632.274H632.405H632.537H632.668H632.799H632.929H633.06H633.19H633.32H633.45H633.58H633.709H633.838H633.967H634.095H634.224H634.352H634.48H634.607H634.734H634.861H634.988H635.115H635.241H635.367H635.492H635.617H635.743H635.867H635.992H636.116H636.24H636.363H636.486H636.609H636.732H636.854H636.976H637.098H637.219H637.34H637.46H637.581H637.701H637.82H637.94H638.058H638.177H638.295H638.413H638.531H638.648H638.764H638.881H638.997H639.112H639.228H639.343H639.457H639.571H639.685H639.798H639.911H640.024H640.136H640.247H640.359H640.47H640.58H640.69H640.8H640.909H641.018H641.126H641.234H641.341H641.448H641.555H641.661H641.767H641.872H641.977H642.081H642.185H642.288H642.391H642.494H642.596H642.697H642.798H642.899H642.999H643.099H643.198H643.296H643.394H643.492H643.589H643.686H643.782H643.877H643.972H644.067H644.161H644.254H644.347H644.44H644.532H644.623H644.714H644.804H644.894H644.983H645.072H645.16H645.247H645.334H645.42H645.506H645.591H645.676H645.76H645.844H645.927H646.009H646.091H646.172H646.253H646.333H646.412H646.491H646.569H646.646H646.723H646.8H646.875H646.95H647.025H647.099H647.172C647.456 311.507 647.776 311.505 648.13 311.504C655.548 311.473 677.997 311.38 699.024 322.104C710.03 327.717 720.641 336.291 728.504 349.393C736.367 362.495 741.5 380.155 741.5 403.969C741.5 428.175 736.134 445.84 728.116 458.729C720.098 471.617 709.41 479.762 698.713 484.896C688.012 490.033 677.304 492.155 669.266 492.992C665.249 493.41 661.902 493.507 659.562 493.5C658.391 493.496 657.473 493.466 656.849 493.437C656.537 493.423 656.298 493.408 656.138 493.398C656.058 493.393 655.998 493.388 655.958 493.385L655.914 493.382L655.903 493.381L655.901 493.381C655.9 493.381 655.9 493.381 655.859 493.879L655.9 493.381L655.879 493.379H655.859H595.095V412.419V411.919H594.595H573.5V392.967H594.594ZM628.599 460.075V460.575H629.099V460.075C629.099 460.575 629.099 460.575 629.099 460.575H629.099H629.101H629.102H629.104H629.106H629.109H629.112H629.116H629.12H629.124H629.129H629.135H629.14H629.146H629.153H629.16H629.167H629.175H629.183H629.192H629.2H629.21H629.22H629.23H629.24H629.251H629.263H629.274H629.286H629.299H629.312H629.325H629.339H629.353H629.367H629.382H629.397H629.413H629.429H629.445H629.462H629.479H629.496H629.514H629.532H629.551H629.57H629.589H629.609H629.629H629.649H629.67H629.691H629.712H629.734H629.756H629.779H629.801H629.825H629.848H629.872H629.896H629.921H629.946H629.971H629.997H630.022H630.049H630.075H630.102H630.13H630.157H630.185H630.213H630.242H630.271H630.3H630.33H630.359H630.39H630.42H630.451H630.482H630.514H630.545H630.577H630.61H630.643H630.676H630.709H630.743H630.776H630.811H630.845H630.88H630.915H630.951H630.986H631.022H631.059H631.095H631.132H631.169H631.207H631.244H631.282H631.321H631.359H631.398H631.437H631.477H631.516H631.556H631.597H631.637H631.678H631.719H631.76H631.802H631.844H631.886H631.928H631.971H632.014H632.057H632.1H632.144H632.188H632.232H632.276H632.321H632.366H632.411H632.456H632.502H632.548H632.594H632.64H632.687H632.734H632.781H632.828H632.876H632.923H632.971H633.02H633.068H633.117H633.166H633.215H633.264H633.314H633.363H633.413H633.464H633.514H633.565H633.615H633.667H633.718H633.769H633.821H633.873H633.925H633.977H634.03H634.082H634.135H634.188H634.242H634.295H634.349H634.402H634.456H634.511H634.565H634.62H634.674H634.729H634.785H634.84H634.895H634.951H635.007H635.063H635.119H635.175H635.232H635.289H635.345H635.403H635.46H635.517H635.575H635.632H635.69H635.748H635.806H635.864H635.923H635.982H636.04H636.099H636.158H636.217H636.277H636.336H636.396H636.456H636.515H636.576H636.636H636.696H636.756H636.817H636.878H636.939H636.999H637.061H637.122H637.183H637.245H637.306H637.368H637.43H637.492H637.554H637.616H637.678H637.74H637.803H637.865H637.928H637.991H638.054H638.117H638.18H638.243H638.307H638.37H638.433H638.497H638.561H638.624H638.688H638.752H638.816H638.88H638.945H639.009H639.073H639.138H639.202H639.267H639.332H639.396H639.461H639.526H639.591H639.656H639.721H639.787H639.852H639.917H639.982H640.048H640.113H640.179H640.245H640.31H640.376H640.442H640.508H640.573H640.639H640.705H640.771H640.837H640.903H640.97H641.036H641.102H641.168H641.235H641.301H641.367H641.434H641.5H641.566H641.633H641.699H641.766H641.832H641.899H641.966H642.032H642.099H642.166H642.232H642.299H642.366H642.432H642.499H642.566H642.632H642.699H642.766H642.832H642.899H642.966H643.033H643.099H643.166H643.233H643.299H643.366H643.433H643.5H643.566H643.633H643.699H643.766H643.833H643.899H643.966H644.032H644.099H644.165H644.232H644.298H644.364H644.431H644.497H644.563H644.63H644.696H644.762H644.828H644.894H644.96H645.026H645.092H645.158H645.224H645.29H645.356H645.421H645.487H645.553H645.618H645.684H645.749H645.815H645.88H645.945H646.01H646.075H646.14H646.205H646.27H646.335H646.4H646.465H646.529H646.594H646.658H646.723H646.787H646.851H646.915H646.979H647.043H647.107H647.171H647.235H647.298H647.362H647.425H647.488H647.552H647.615H647.678H647.741H647.804H647.866H647.929H647.991H648.054H648.116H648.178H648.24H648.302H648.364H648.426H648.487H648.549H648.61H648.671H648.732H648.793H648.854H648.915H648.975H649.036H649.096H649.156H649.216H649.276H649.336H649.395H649.455H649.514H649.573H649.633H649.691H649.75H649.809H649.867H649.926H649.984H650.042H650.099H650.157H650.215H650.272H650.329H650.386H650.443H650.5H650.556H650.613H650.669H650.725H650.781H650.836H650.892H650.947H651.002H651.057H651.112H651.167H651.221H651.275H651.329H651.383H651.437H651.49H651.543H651.597H651.649H651.702H651.755H651.807H651.859H651.911H651.962H652.014H652.065H652.116H652.167H652.218H652.268H652.318H652.368H652.418H652.468H652.517H652.566H652.615H652.664H652.712H652.76H652.808H652.856H652.904H652.951H652.998H653.045H653.091H653.138H653.184H653.23H653.275H653.321H653.366H653.411H653.455H653.5H653.544H653.588H653.632H653.675H653.718H653.761H653.804H653.846H653.888H653.93H653.971H654.013H654.054H654.095H654.135H654.175H654.215H654.255H654.294H654.334H654.372H654.411H654.449C654.528 460.575 654.613 460.575 654.703 460.575C658.359 460.579 671.499 460.597 683.861 453.858C690.205 450.401 696.345 445.164 700.892 437.242C705.438 429.321 708.376 418.744 708.358 404.629C708.323 376.376 696.856 361.259 684.197 353.23C671.576 345.226 657.838 344.311 653.275 344.311H653.222H653.169H653.115H653.062H653.008H652.955H652.901H652.847H652.793H652.739H652.684H652.63H652.575H652.52H652.465H652.41H652.355H652.3H652.245H652.189H652.134H652.078H652.022H651.966H651.91H651.854H651.797H651.741H651.684H651.628H651.571H651.514H651.457H651.4H651.343H651.285H651.228H651.17H651.113H651.055H650.997H650.939H650.881H650.823H650.765H650.707H650.648H650.59H650.531H650.472H650.414H650.355H650.296H650.237H650.178H650.118H650.059H650H649.94H649.88H649.821H649.761H649.701H649.641H649.581H649.521H649.461H649.401H649.341H649.28H649.22H649.159H649.099H649.038H648.977H648.917H648.856H648.795H648.734H648.673H648.612H648.55H648.489H648.428H648.367H648.305H648.244H648.182H648.12H648.059H647.997H647.935H647.874H647.812H647.75H647.688H647.626H647.564H647.502H647.439H647.377H647.315H647.253H647.19H647.128H647.066H647.003H646.941H646.878H646.816H646.753H646.69H646.628H646.565H646.502H646.44H646.377H646.314H646.251H646.188H646.126H646.063H646H645.937H645.874H645.811H645.748H645.685H645.622H645.559H645.495H645.432H645.369H645.306H645.243H645.18H645.117H645.053H644.99H644.927H644.864H644.801H644.737H644.674H644.611H644.548H644.485H644.421H644.358H644.295H644.232H644.168H644.105H644.042H643.979H643.916H643.852H643.789H643.726H643.663H643.6H643.537H643.474H643.41H643.347H643.284H643.221H643.158H643.095H643.032H642.969H642.906H642.843H642.781H642.718H642.655H642.592H642.529H642.467H642.404H642.341H642.278H642.216H642.153H642.091H642.028H641.966H641.903H641.841H641.778H641.716H641.654H641.592H641.529H641.467H641.405H641.343H641.281H641.219H641.157H641.095H641.033H640.972H640.91H640.848H640.787H640.725H640.664H640.602H640.541H640.48H640.418H640.357H640.296H640.235H640.174H640.113H640.052H639.991H639.931H639.87H639.809H639.749H639.688H639.628H639.568H639.507H639.447H639.387H639.327H639.267H639.207H639.148H639.088H639.028H638.969H638.909H638.85H638.791H638.732H638.673H638.614H638.555H638.496H638.437H638.379H638.32H638.262H638.203H638.145H638.087H638.029H637.971H637.913H637.855H637.798H637.74H637.683H637.625H637.568H637.511H637.454H637.397H637.34H637.284H637.227H637.171H637.114H637.058H637.002H636.946H636.89H636.834H636.779H636.723H636.668H636.613H636.557H636.502H636.447H636.393H636.338H636.284H636.229H636.175H636.121H636.067H636.013H635.959H635.906H635.852H635.799H635.746H635.693H635.64H635.587H635.534H635.482H635.43H635.377H635.325H635.273H635.222H635.17H635.119H635.067H635.016H634.965H634.914H634.864H634.813H634.763H634.712H634.662H634.612H634.563H634.513H634.464H634.414H634.365H634.316H634.267H634.219H634.17H634.122H634.074H634.026H633.978H633.931H633.883H633.836H633.789H633.742H633.695H633.649H633.602H633.556H633.51H633.464H633.419H633.373H633.328H633.283H633.238H633.193H633.149H633.104H633.06H633.016H632.973H632.929H632.886H632.842H632.799H632.757H632.714H632.672H632.629H632.587H632.546H632.504H632.463H632.421H632.38H632.34H632.299H632.259H632.219H632.179H632.139H632.099H632.06H632.021H631.982H631.943H631.905H631.867H631.829H631.791H631.753H631.716H631.679H631.642H631.605H631.569H631.533H631.497H631.461H631.425H631.39H631.355H631.32H631.285H631.251H631.217H631.183H631.149H631.116H631.082H631.05H631.017H630.984H630.952H630.92H630.888H630.857H630.825H630.794H630.764H630.733H630.703H630.673H630.643H630.614H630.584H630.555H630.527H630.498H630.47H630.442H630.414H630.387H630.359H630.332H630.306H630.279H630.253H630.227H630.202H630.176H630.151H630.126H630.102H630.078H630.054H630.03H630.006H629.983H629.96H629.938H629.915H629.893H629.871H629.85H629.829H629.808H629.787H629.767H629.747H629.727H629.707H629.688H629.669H629.651H629.632H629.614H629.596H629.579H629.562H629.545H629.528H629.512H629.496H629.48H629.465H629.45H629.435H629.421H629.406H629.392H629.379H629.366H629.353H629.34H629.328H629.316H629.304H629.293H629.282H629.271H629.26H629.25H629.24H629.231H629.222H629.213H629.204H629.196H629.188H629.181H629.174H629.167H629.16H629.154H629.148H629.142H629.137H629.132H629.128H629.123H629.119H629.116H629.113H629.11H629.107H629.105H629.103H629.101H629.1H629.099H629.099C629.099 344.311 629.099 344.311 629.099 344.446C629.099 344.52 629.099 344.634 629.099 344.811V344.311H628.599V344.811V392.468V392.968H629.099H666.624V411.92H629.099H628.599V412.42V460.075Z" stroke="black"/>
<rect opacity="0.5" x="394.528" y="466" width="169" height="169" fill="#FE6584"/>
<rect opacity="0.5" x="359" y="550.764" width="169.372" height="169.372" transform="rotate(-45 359 550.764)" fill="#FE6584"/>
<rect opacity="0.5" x="432.932" y="440.117" width="169.372" height="169.372" transform="rotate(22.5 432.932 440.117)" fill="#FE6584"/>
<rect opacity="0.5" x="368.116" y="504.934" width="169.372" height="169.372" transform="rotate(-22.5 368.116 504.934)" fill="#FE6584"/>
<rect x="385.028" y="456.5" width="168" height="168" stroke="black"/>
<rect x="349.707" y="540.764" width="168.372" height="168.372" transform="rotate(-45 349.707 540.764)" stroke="black"/>
<rect x="423.203" y="430.77" width="168.372" height="168.372" transform="rotate(22.5 423.203 430.77)" stroke="black"/>
<rect x="358.77" y="495.204" width="168.372" height="168.372" transform="rotate(-22.5 358.77 495.204)" stroke="black"/>
<path d="M487.32 592H467V513.672L442.742 521.195V504.672L485.141 489.484H487.32V592Z" fill="white"/>
<path d="M483.32 590V591H484.32V590H483.32ZM463 590H462V591H463V590ZM463 511.672H464V510.315L462.704 510.717L463 511.672ZM438.742 519.195H437.742V520.552L439.038 520.15L438.742 519.195ZM438.742 502.672L438.405 501.73L437.742 501.968V502.672H438.742ZM481.141 487.484V486.484H480.967L480.803 486.543L481.141 487.484ZM483.32 487.484H484.32V486.484H483.32V487.484ZM483.32 589H463V591H483.32V589ZM464 590V511.672H462V590H464ZM462.704 510.717L438.446 518.24L439.038 520.15L463.296 512.627L462.704 510.717ZM439.742 519.195V502.672H437.742V519.195H439.742ZM439.079 503.613L481.478 488.426L480.803 486.543L438.405 501.73L439.079 503.613ZM481.141 488.484H483.32V486.484H481.141V488.484ZM482.32 487.484V590H484.32V487.484H482.32Z" fill="black"/>
<rect opacity="0.6" x="127.917" y="71.8027" width="44.1201" height="44.1201" transform="rotate(-45 127.917 71.8027)" fill="#FE6584"/>
<rect x="117.707" y="71.1973" width="43.1201" height="43.6931" transform="rotate(-45 117.707 71.1973)" stroke="black"/>
<rect opacity="0.6" x="1088.92" y="785.803" width="44.1201" height="44.1201" transform="rotate(-45 1088.92 785.803)" fill="#FE6584"/>
<rect x="1078.71" y="785.197" width="43.1201" height="43.6931" transform="rotate(-45 1078.71 785.197)" stroke="black"/>
<rect opacity="0.6" x="959.055" y="580.742" width="44.1201" height="44.1201" fill="#FE6584"/>
<rect x="952.5" y="575.5" width="43.1201" height="43.6931" stroke="black"/>
<rect opacity="0.6" x="1056.05" y="83.7422" width="44.1201" height="44.1201" fill="#FE6584"/>
<rect x="1049.5" y="78.5" width="43.1201" height="43.6931" stroke="black"/>
<rect opacity="0.6" x="402.055" y="195.742" width="44.1201" height="44.1201" fill="#FE6584"/>
<rect x="395.5" y="190.5" width="43.1201" height="43.6931" stroke="black"/>
<rect opacity="0.6" x="106" y="373" width="84" height="85" fill="#FE6584"/>
<rect x="92.5" y="362.5" width="83" height="85" stroke="black"/>
<rect opacity="0.45" x="795.444" y="713.082" width="58.3757" height="58.3757" transform="rotate(-45 795.444 713.082)" fill="#C4C4C4"/>
<rect x="781.707" y="712.277" width="57.3757" height="58.1338" transform="rotate(-45 781.707 712.277)" stroke="black"/>
<rect opacity="0.45" x="780.125" y="89.4219" width="69.2083" height="69.2083" transform="rotate(-45 780.125 89.4219)" fill="#C4C4C4"/>
<rect x="763.707" y="88.4688" width="68.2083" height="69.1071" transform="rotate(-45 763.707 88.4688)" stroke="black"/>
<rect opacity="0.45" x="236.444" y="498.082" width="58.3757" height="58.3757" transform="rotate(-45 236.444 498.082)" fill="#C4C4C4"/>
<rect x="222.707" y="497.277" width="57.3757" height="58.1338" transform="rotate(-45 222.707 497.277)" stroke="black"/>
<rect opacity="0.45" x="198.466" y="211.406" width="46.3395" height="46.3395" transform="rotate(-45 198.466 211.406)" fill="#C4C4C4"/>
<rect x="187.707" y="210.766" width="45.3395" height="45.9413" transform="rotate(-45 187.707 210.766)" stroke="black"/>
<rect opacity="0.45" x="937.466" y="202.408" width="46.3395" height="46.3395" transform="rotate(-45 937.466 202.408)" fill="#C4C4C4"/>
<rect x="926.707" y="201.768" width="45.3395" height="45.9413" transform="rotate(-45 926.707 201.768)" stroke="black"/>
<rect opacity="0.45" x="492.347" y="809.318" width="33.7347" height="33.7347" transform="rotate(-45 492.347 809.318)" fill="#C4C4C4"/>
<rect x="484.707" y="808.854" width="32.7347" height="33.1729" transform="rotate(-45 484.707 808.854)" stroke="black"/>
<rect opacity="0.6" x="973" y="333" width="76" height="76" fill="#C4C4C4"/>
<rect x="957.5" y="349.5" width="75" height="75" stroke="black"/>
<rect opacity="0.6" x="173" y="651" width="76" height="76" fill="#C4C4C4"/>
<rect x="157.5" y="667.5" width="75" height="75" stroke="black"/>
</svg>
