<svg width="1220" height="880" viewBox="0 0 1220 880" fill="none" xmlns="http://www.w3.org/2000/svg">
<g id="To The Moon">
<circle id="Ellipse 6" opacity="0.9" cx="961" cy="205" r="179" fill="#C4C4C4"/>
<circle id="Ellipse 7" cx="947" cy="193" r="178.5" stroke="black"/>
<circle id="Ellipse 12" opacity="0.75" cx="842.5" cy="163.5" r="22.5" fill="white"/>
<circle id="Ellipse 11" cx="838.5" cy="161.5" r="22" stroke="black"/>
<circle id="Ellipse 13" opacity="0.75" cx="980" cy="131" r="34" fill="white"/>
<circle id="Ellipse 14" cx="974" cy="128" r="33.5" stroke="black"/>
<circle id="Ellipse 15" opacity="0.75" cx="877.5" cy="271.5" r="24.5" fill="white"/>
<circle id="Ellipse 16" cx="873.5" cy="269.5" r="24" stroke="black"/>
<circle id="Ellipse 17" opacity="0.75" cx="998" cy="254" r="16" fill="white"/>
<path id="Ellipse 18" d="M1010.5 253C1010.5 261.575 1003.77 268.5 995.5 268.5C987.231 268.5 980.5 261.575 980.5 253C980.5 244.425 987.231 237.5 995.5 237.5C1003.77 237.5 1010.5 244.425 1010.5 253Z" stroke="black"/>
<circle id="Ellipse 19" opacity="0.75" cx="1095" cy="160" r="12" fill="white"/>
<circle id="Ellipse 20" cx="1093.5" cy="159.5" r="11" stroke="black"/>
<ellipse id="Ellipse 30" opacity="0.75" cx="425" cy="554.5" rx="67" ry="66.5" fill="#C4C4C4"/>
<circle id="Ellipse 31" cx="419" cy="550" r="66.5" stroke="black"/>
<path id="Vector" d="M445.869 543.535C446.91 536.599 441.614 532.872 434.374 530.391L436.723 520.997L430.988 519.571L428.699 528.71C427.191 528.336 425.643 527.983 424.101 527.631L426.4 518.423L420.677 517L418.326 526.392C417.078 526.109 415.852 525.828 414.664 525.533V525.504L406.76 523.529L405.227 529.642C405.227 529.642 409.482 530.614 409.393 530.676C411.715 531.253 412.135 532.786 412.066 534.001L409.39 544.7C409.593 544.75 409.792 544.814 409.986 544.891C409.795 544.843 409.591 544.791 409.373 544.738L405.623 559.731C405.339 560.434 404.619 561.49 402.994 561.09C403.051 561.172 398.825 560.052 398.825 560.052L396 566.605L403.455 568.462C404.844 568.809 406.205 569.173 407.545 569.514L405.172 579.008L410.901 580.434L413.253 571.033C414.817 571.456 416.336 571.848 417.823 572.216L415.481 581.574L421.217 583L423.589 573.52C433.37 575.364 440.724 574.62 443.822 565.8C446.315 558.698 443.697 554.602 438.552 551.93C442.289 551.07 445.117 548.612 445.869 543.535ZM432.766 561.857C430.994 568.959 419.002 565.12 415.115 564.149L418.265 551.56C422.152 552.536 434.625 554.451 432.766 561.857ZM434.539 543.431C432.922 549.891 422.941 546.609 419.704 545.805L422.559 534.38C425.798 535.192 436.224 536.694 434.539 543.431Z" fill="white"/>
<path id="Vector_2" d="M443.375 540.461L443.375 540.462C443.01 542.92 442.15 544.704 440.964 545.973C439.778 547.242 438.233 548.03 436.44 548.443L435.116 548.748L436.322 549.374C438.838 550.681 440.67 552.302 441.594 554.405C442.514 556.501 442.569 559.163 441.35 562.634C439.848 566.91 437.346 569.174 434.065 570.181C430.738 571.202 426.555 570.948 421.682 570.028L421.219 569.941L421.104 570.398L418.853 579.394L414.088 578.21L416.308 569.337L416.43 568.851L415.943 568.731C414.46 568.363 412.944 567.973 411.383 567.55L410.891 567.417L410.767 567.912L408.537 576.828L403.778 575.644L406.03 566.635L406.15 566.152L405.668 566.029C405.112 565.888 404.547 565.741 403.977 565.593C403.185 565.387 402.382 565.179 401.576 564.977L401.576 564.977L394.692 563.263L397.114 557.645C397.187 557.665 397.269 557.686 397.357 557.709C397.753 557.813 398.28 557.951 398.806 558.086C399.331 558.221 399.857 558.354 400.249 558.448C400.444 558.495 400.611 558.534 400.73 558.558C400.787 558.57 400.844 558.581 400.891 558.587C400.9 558.589 400.922 558.591 400.95 558.593C401.858 558.798 402.572 558.613 403.104 558.23C403.628 557.851 403.926 557.315 404.086 556.918L404.099 556.886L404.108 556.852L407.737 542.344C407.78 542.355 407.823 542.365 407.866 542.376L408.17 541.426C408.111 541.402 408.051 541.38 407.991 541.359L410.551 531.123L410.563 531.077L410.565 531.03C410.603 530.358 410.51 529.556 410.048 528.831C409.59 528.112 408.81 527.53 407.596 527.212C407.574 527.2 407.556 527.193 407.547 527.19L407.546 527.189C407.498 527.17 407.44 527.152 407.384 527.135C407.266 527.099 407.099 527.054 406.905 527.004C406.513 526.903 405.986 526.775 405.459 526.65C404.932 526.524 404.401 526.4 404.003 526.308C403.945 526.295 403.889 526.282 403.836 526.269L405.123 521.135L412.164 522.894V522.924L412.544 523.018C413.737 523.314 414.967 523.597 416.215 523.879L416.692 523.987L416.811 523.513L419.041 514.606L423.794 515.787L421.616 524.51L421.493 525.005L421.99 525.119C423.533 525.47 425.076 525.822 426.579 526.195L427.063 526.316L427.185 525.832L429.352 517.176L434.117 518.361L431.889 527.27L431.777 527.716L432.212 527.864C435.807 529.096 438.855 530.618 440.873 532.645C442.865 534.648 443.871 537.157 443.375 540.461ZM428.006 562.806C429.569 562.127 430.767 560.919 431.251 558.979C431.755 556.97 431.284 555.304 430.225 553.952C429.184 552.624 427.594 551.619 425.876 550.841C423.139 549.602 419.927 548.881 417.781 548.399C417.24 548.277 416.767 548.171 416.386 548.075L415.901 547.954L415.78 548.439L412.63 561.028L412.508 561.513L412.994 561.635C413.299 561.711 413.658 561.806 414.063 561.913C416.186 562.476 419.542 563.365 422.707 563.53C424.593 563.628 426.47 563.475 428.006 562.806ZM433.024 540.553L433.024 540.552C433.481 538.727 433.117 537.219 432.239 535.997C431.378 534.798 430.045 533.908 428.609 533.231C426.324 532.155 423.627 531.558 421.838 531.161C421.388 531.061 420.995 530.974 420.681 530.895L420.196 530.774L420.074 531.259L417.219 542.683L417.097 543.169L417.583 543.29C417.843 543.355 418.152 543.437 418.501 543.53C420.269 544.001 423.063 544.745 425.711 544.842C427.3 544.9 428.894 544.729 430.212 544.09C431.555 543.44 432.583 542.316 433.024 540.553Z" stroke="black"/>
<rect id="Rectangle 11" opacity="0.6" x="149.378" y="799.525" width="285" height="22.9796" rx="11.4898" transform="rotate(-45 149.378 799.525)" fill="#C4C4C4"/>
<rect id="Rectangle 19" x="141.707" y="803.146" width="284" height="21.9796" rx="10.9898" transform="rotate(-45 141.707 803.146)" stroke="black"/>
<rect id="Rectangle 15" opacity="0.7" x="72" y="830.725" width="384.277" height="22.9796" rx="11.4898" transform="rotate(-45 72 830.725)" fill="#C4C4C4"/>
<rect id="Rectangle 16" x="66.7071" y="830.725" width="383.277" height="21.9796" rx="10.9898" transform="rotate(-45 66.7071 830.725)" stroke="black"/>
<rect id="Rectangle 13" opacity="0.6" x="286" y="766.133" width="196.762" height="18.1983" rx="9.09917" transform="rotate(-45 286 766.133)" fill="#C4C4C4"/>
<rect id="Rectangle 17" x="280.707" y="766.133" width="195.762" height="17.1983" rx="8.59917" transform="rotate(-45 280.707 766.133)" stroke="black"/>
<rect id="Rectangle 14" opacity="0.7" x="188.454" y="819.68" width="272.488" height="18.1983" rx="9.09917" transform="rotate(-45 188.454 819.68)" fill="#C4C4C4"/>
<rect id="Rectangle 18" x="183.276" y="820.564" width="272.739" height="17.1983" rx="8.59917" transform="rotate(-45 183.276 820.564)" stroke="black"/>
<rect id="Rectangle 11_2" opacity="0.6" x="169.051" y="176.279" width="40.6185" height="40.6185" transform="rotate(-45 169.051 176.279)" fill="#FE6584"/>
<rect id="Rectangle 12" x="159.707" y="175.721" width="39.6185" height="40.146" transform="rotate(-45 159.707 175.721)" stroke="black"/>
<rect id="Rectangle 20" opacity="0.6" x="111.318" y="440.23" width="33.6154" height="33.6154" transform="rotate(-45 111.318 440.23)" fill="#FE6584"/>
<rect id="Rectangle 21" x="103.707" y="439.77" width="32.6154" height="33.0519" transform="rotate(-45 103.707 439.77)" stroke="black"/>
<rect id="Rectangle 34" opacity="0.6" x="678.917" y="45.8027" width="44.1201" height="44.1201" transform="rotate(-45 678.917 45.8027)" fill="#FE6584"/>
<rect id="Rectangle 35" x="668.707" y="45.1973" width="43.1201" height="43.6931" transform="rotate(-45 668.707 45.1973)" stroke="black"/>
<rect id="Rectangle 30" opacity="0.5" x="411.917" y="253.803" width="44.1201" height="44.1201" transform="rotate(-45 411.917 253.803)" fill="#C4C4C4"/>
<rect id="Rectangle 31" x="401.707" y="253.197" width="43.1201" height="43.6931" transform="rotate(-45 401.707 253.197)" stroke="black"/>
<rect id="Rectangle 40" opacity="0.6" x="372.917" y="77.8027" width="44.1201" height="44.1201" transform="rotate(-45 372.917 77.8027)" fill="#C4C4C4"/>
<rect id="Rectangle 41" x="362.707" y="77.1973" width="43.1201" height="43.6931" transform="rotate(-45 362.707 77.1973)" stroke="black"/>
<rect id="Rectangle 24" opacity="0.6" x="908.701" y="683.852" width="27.0815" height="27.0815" transform="rotate(-45 908.701 683.852)" fill="#FE6584"/>
<rect id="Rectangle 25" opacity="0.6" x="902.707" y="683.479" width="26.0815" height="26.4332" transform="rotate(-45 902.707 683.479)" stroke="black"/>
<rect id="Rectangle 42" opacity="0.6" x="616.083" y="308.717" width="36.7105" height="36.7105" transform="rotate(-45 616.083 308.717)" fill="#FE6584"/>
<rect id="Rectangle 43" x="607.707" y="308.209" width="35.7105" height="36.1873" transform="rotate(-45 607.707 308.209)" stroke="black"/>
<rect id="Rectangle 32" opacity="0.5" x="946.466" y="547.406" width="46.3395" height="46.3395" transform="rotate(-45 946.466 547.406)" fill="#C4C4C4"/>
<rect id="Rectangle 33" x="935.707" y="546.768" width="45.3395" height="45.9413" transform="rotate(-45 935.707 546.768)" stroke="black"/>
<rect id="Rectangle 36" opacity="0.55" x="727.931" y="460.193" width="28.0113" height="28.0113" transform="rotate(-45 727.931 460.193)" fill="#C4C4C4"/>
<rect id="Rectangle 37" x="721.707" y="459.807" width="27.0113" height="27.3751" transform="rotate(-45 721.707 459.807)" stroke="black"/>
<rect id="Rectangle 38" opacity="0.45" x="1070.44" y="722.082" width="58.3757" height="58.3757" transform="rotate(-45 1070.44 722.082)" fill="#C4C4C4"/>
<rect id="Rectangle 39" x="1056.71" y="721.277" width="57.3757" height="58.1338" transform="rotate(-45 1056.71 721.277)" stroke="black"/>
<rect id="Rectangle 26" opacity="0.6" x="617.573" y="680.787" width="42.7285" height="42.7285" transform="rotate(-45 617.573 680.787)" fill="#FE6584"/>
<rect id="Rectangle 27" x="607.707" y="680.201" width="41.7285" height="42.2835" transform="rotate(-45 607.707 680.201)" stroke="black"/>
<rect id="Rectangle 28" opacity="0.6" x="1121.83" y="409.986" width="39.7195" height="39.7195" transform="rotate(-45 1121.83 409.986)" fill="#FE6584"/>
<rect id="Rectangle 29" x="1112.71" y="409.443" width="38.7195" height="39.2353" transform="rotate(-45 1112.71 409.443)" stroke="black"/>
</g>
</svg>
